<svg width="25" height="25" viewBox="0 0 25 25" fill="none" xmlns="http://www.w3.org/2000/svg">
<g clip-path="url(#clip0)">
<path d="M24.3573 18.4391L21.2494 15.3313C20.3926 14.4745 18.9983 14.4745 18.1415 15.3313L16.7289 16.7439C16.0798 17.393 15.0235 17.3928 14.3746 16.7442L8.25158 10.6159C7.60094 9.96524 7.60085 8.91217 8.25158 8.26143C8.47912 8.03389 9.13249 7.38052 9.66423 6.84879C10.5173 5.99576 10.5292 4.60586 9.6634 3.74014L6.55636 0.642872C5.69952 -0.213916 4.30533 -0.213916 3.45079 0.640626C2.81133 1.27451 2.60508 1.47901 2.31837 1.76323C-0.771485 4.85303 -0.771485 9.88053 2.31822 12.9702L12.02 22.6771C15.1171 25.7742 20.1298 25.7744 23.2271 22.6771L24.3573 21.5469C25.2141 20.6901 25.2141 19.296 24.3573 18.4391ZM4.48448 1.67881C4.77008 1.39321 5.23473 1.39317 5.52125 1.67959L8.62829 4.77686C8.91457 5.06314 8.91457 5.52647 8.62829 5.8128L8.11027 6.33077L3.96915 2.18965L4.48448 1.67881ZM13.0561 21.6413L3.3543 11.9343C0.963772 9.54381 0.832376 5.79014 2.9502 3.24263L7.07931 7.37174C5.99435 8.60167 6.03956 10.4758 7.2154 11.6517L13.3383 17.7797C13.3383 17.7797 13.3384 17.7798 13.3385 17.7799C14.513 18.9545 16.3871 19.0026 17.6185 17.9162L21.7477 22.0454C19.2083 24.1595 15.4631 24.0483 13.0561 21.6413ZM23.3214 20.511L22.8034 21.029L18.6596 16.8852L19.1775 16.3672C19.4631 16.0816 19.9278 16.0816 20.2135 16.3672L23.3213 19.4751C23.607 19.7607 23.607 20.2255 23.3214 20.511Z" fill="white"/>
</g>
<defs>
<clipPath id="clip0">
<rect width="25" height="25" fill="white"/>
</clipPath>
</defs>
</svg>
