<svg width="26" height="26" viewBox="0 0 26 26" fill="none" xmlns="http://www.w3.org/2000/svg">
<path d="M13 26C20.1684 26 26 20.1684 26 13C26 5.83158 20.1684 0 13 0C5.83158 0 0 5.83158 0 13C0 20.1684 5.83158 26 13 26ZM13 1.625C19.2725 1.625 24.375 6.7275 24.375 13C24.375 19.2725 19.2725 24.375 13 24.375C6.7275 24.375 1.625 19.2725 1.625 13C1.625 6.7275 6.7275 1.625 13 1.625Z" fill="white"/>
<path d="M8.55404 15.3344L10.2527 14.5967L9.77604 15.0744C9.62329 15.2272 9.5377 15.4341 9.5377 15.6486V18.8282C9.5377 19.5562 10.4174 19.9093 10.9244 19.4023L12.6295 17.6972L16.3454 19.5551C16.8264 19.7956 17.4081 19.5107 17.5078 18.9733L19.6279 7.31559C19.7395 6.68834 19.122 6.18134 18.5315 6.41318L4.75587 11.8049C4.13837 12.0454 4.05604 12.8904 4.61504 13.2468L7.79354 15.2748C8.02104 15.42 8.30812 15.4428 8.55404 15.3344ZM17.7689 8.45851L16.1038 17.6181L12.8321 15.9833C12.5158 15.8252 12.1388 15.8913 11.895 16.1361L11.1627 16.8684V15.9877L14.4203 12.7301C15.0519 12.0985 14.3412 11.0563 13.5222 11.4106L8.30379 13.6748L6.83695 12.7388L17.7689 8.45851Z" fill="white"/>
</svg>
