<svg width="34" height="34" viewBox="0 0 34 34" fill="none" xmlns="http://www.w3.org/2000/svg">
<path d="M33.9406 0.478298C33.8215 0.189329 33.5387 0.000762939 33.2266 0.000762939C3.23763 0.000762939 0 12.429 0 17.7731C0 24.7058 5.27918 29.3638 13.1361 29.3638C23.0592 29.3638 25.1378 19.9212 26.2552 14.8491C27.7573 8.01991 31.063 4.03272 33.7737 1.32051C33.9946 1.09956 34.0611 0.767268 33.9406 0.478298ZM24.7453 14.5169C23.3281 20.9521 21.1475 27.8184 13.1361 27.8184C6.20332 27.8184 1.5454 23.7817 1.5454 17.7731C1.5454 12.9993 4.50022 2.03449 31.4029 1.56159C28.8484 4.37276 26.1022 8.34293 24.7453 14.5169Z" fill="white"/>
<path d="M21.5586 8.16324C21.3717 7.77995 20.9096 7.62079 20.5263 7.80472C7.96663 13.8906 0 28.6324 0 33.2269C0 33.6534 0.346199 33.9996 0.772735 33.9996C1.19927 33.9996 1.54547 33.6534 1.54547 33.2269C1.54547 29.6152 8.5169 15.3417 21.2001 9.1956C21.5833 9.00863 21.7441 8.54653 21.5586 8.16324Z" fill="white"/>
</svg>
