<svg width="20" height="20" viewBox="0 0 20 20" fill="none" xmlns="http://www.w3.org/2000/svg">
<path d="M19.486 14.7513L16.9997 12.265C16.3142 11.5796 15.1988 11.5796 14.5134 12.265L13.3833 13.3951C12.864 13.9144 12.019 13.9143 11.4999 13.3953L6.60144 8.4927C6.08093 7.97219 6.08086 7.12973 6.60144 6.60915C6.78347 6.42712 7.30617 5.90442 7.73156 5.47903C8.41402 4.79661 8.42356 3.68469 7.7309 2.99211L5.24527 0.514298C4.5598 -0.171133 3.44444 -0.171133 2.76081 0.512501C2.24925 1.01961 2.08425 1.1832 1.85487 1.41059C-0.617009 3.88243 -0.617009 7.90442 1.85475 10.3762L9.61617 18.1417C12.0938 20.6194 16.104 20.6196 18.5819 18.1417L19.486 17.2376C20.1715 16.5521 20.1715 15.4368 19.486 14.7513ZM3.58776 1.34305C3.81624 1.11457 4.18796 1.11453 4.41718 1.34367L6.90281 3.82149C7.13183 4.05051 7.13183 4.42118 6.90281 4.65024L6.4884 5.06461L3.1755 1.75172L3.58776 1.34305ZM10.4451 17.313L2.68362 9.54747C0.771196 7.63505 0.666079 4.63211 2.36034 2.5941L5.66363 5.89739C4.79566 6.88133 4.83183 8.38067 5.7725 9.32134L10.6708 14.2237C10.6708 14.2238 10.6709 14.2238 10.6709 14.2239C11.6106 15.1636 13.1099 15.2021 14.095 14.3329L17.3984 17.6363C15.3668 19.3276 12.3707 19.2386 10.4451 17.313ZM18.6573 16.4088L18.2429 16.8232L14.9278 13.5081L15.3422 13.0938C15.5707 12.8653 15.9424 12.8652 16.171 13.0938L18.6572 15.5801C18.8858 15.8086 18.8858 16.1804 18.6573 16.4088Z" fill="#0E5195"/>
</svg>
