<svg width="26" height="26" viewBox="0 0 26 26" fill="none" xmlns="http://www.w3.org/2000/svg">
<path d="M13 26C20.1684 26 26 20.1684 26 13C26 5.83158 20.1684 0 13 0C5.83158 0 0 5.83158 0 13C0 20.1684 5.83158 26 13 26ZM13 1.625C19.2725 1.625 24.375 6.7275 24.375 13C24.375 19.2725 19.2725 24.375 13 24.375C6.7275 24.375 1.625 19.2725 1.625 13C1.625 6.7275 6.7275 1.625 13 1.625Z" fill="#3DB804"/>
<path d="M8.55402 15.3345L10.2527 14.5968L9.77602 15.0745C9.62327 15.2273 9.53769 15.4342 9.53769 15.6487V18.8283C9.53769 19.5563 10.4174 19.9095 10.9244 19.4025L12.6295 17.6973L16.3454 19.5552C16.8264 19.7957 17.4081 19.5108 17.5078 18.9735L19.6279 7.31572C19.7394 6.68847 19.1219 6.18147 18.5315 6.4133L4.75586 11.805C4.13836 12.0455 4.05602 12.8905 4.61502 13.247L7.79352 15.275C8.02102 15.4201 8.30811 15.4429 8.55402 15.3345ZM17.7689 8.45863L16.1038 17.6182L12.8321 15.9835C12.5158 15.8253 12.1388 15.8914 11.895 16.1362L11.1627 16.8686V15.9878L14.4203 12.7302C15.0519 12.0986 14.3412 11.0565 13.5222 11.4107L8.30377 13.6749L6.83694 12.7389L17.7689 8.45863Z" fill="#3DB804"/>
</svg>
