<svg width="26" height="26" viewBox="0 0 26 26" fill="none" xmlns="http://www.w3.org/2000/svg">
<g clip-path="url(#clip0)">
<path d="M22.8603 2.90875C20.8051 0.893841 17.4824 -0.0824565 12.9828 0.00551679C8.44577 0.0947501 5.41298 0.891092 3.43851 2.51172C1.52945 4.07852 0.64032 6.37121 0.64032 9.72691V13.1517C0.64032 17.1132 2.76313 21.4685 6.82033 22.1275C7.28872 22.2041 7.72996 21.8857 7.80602 21.4172C7.88208 20.9489 7.56409 20.5075 7.0957 20.4315C4.01881 19.9317 2.35855 16.3077 2.35855 13.1517V9.72691C2.35855 4.91518 4.1415 1.89786 13.0165 1.72329C17.04 1.64356 19.944 2.45582 21.6572 4.13556C22.9923 5.44474 23.6413 7.27362 23.6413 9.72691V13.1517C23.6413 18.3378 21.3136 20.6252 15.3433 21.2987H11.1098C10.882 21.2987 10.6634 21.3892 10.5024 21.5504L7.51942 24.5333C7.18391 24.8689 7.18391 25.4128 7.51942 25.7484C7.68712 25.9161 7.90705 26 8.12687 26C8.34669 26 8.56662 25.9162 8.73432 25.7484L11.4657 23.0169H15.3913C15.4229 23.0169 15.4547 23.0152 15.4862 23.0117C18.9029 22.6322 21.2427 21.7429 22.8492 20.213C24.5385 18.6043 25.3597 16.2945 25.3597 13.1516V9.72691C25.3597 6.82894 24.5188 4.535 22.8603 2.90875Z" fill="#3DB804"/>
<path d="M13.5362 5.61152C13.5363 5.61152 13.5363 5.61152 13.5365 5.61152C14.9208 5.61152 16.2223 6.1507 17.2013 7.12963C18.1803 8.10867 18.7195 9.4104 18.7194 10.795C18.7194 11.2694 19.1039 11.6541 19.5784 11.6541C19.5785 11.6541 19.5785 11.6541 19.5785 11.6541C20.053 11.6541 20.4376 11.2695 20.4376 10.7951C20.4377 8.95152 19.7199 7.21829 18.4163 5.91473C17.1128 4.61116 15.3799 3.8934 13.5365 3.8934C13.5364 3.8934 13.5361 3.8934 13.5359 3.8934C13.0615 3.8934 12.6769 4.27806 12.6769 4.75252C12.6771 5.22686 13.0617 5.61152 13.5362 5.61152Z" fill="#3DB804"/>
<path d="M13.5359 8.63262C14.7282 8.63285 15.6983 9.60285 15.6984 10.795C15.6985 11.2694 16.083 11.6541 16.5576 11.654C17.0322 11.654 17.4167 11.2692 17.4166 10.7947C17.4163 8.65542 15.6756 6.91474 13.5362 6.9144H13.5361C13.0616 6.9144 12.6771 7.29894 12.6769 7.7734C12.6769 8.24786 13.0615 8.63262 13.5359 8.63262Z" fill="#3DB804"/>
<path d="M9.68368 10.1047C9.29204 10.3725 9.19158 10.9071 9.45928 11.2988C9.72698 11.6904 10.2617 11.7907 10.6533 11.523C10.9614 11.3125 11.6828 10.8193 11.6322 9.83323C11.6001 9.24307 11.0678 8.40045 10.6269 7.79747C9.98196 6.91522 9.42617 6.38383 8.9784 6.21911C8.5603 6.06344 8.12307 6.06011 7.67793 6.20948C6.75593 6.52014 6.08651 7.08154 5.74217 7.83298C5.40689 8.56449 5.41434 9.40516 5.76382 10.2646C6.58926 12.2896 7.74483 14.0625 9.20613 15.5415C10.6775 16.995 12.4503 18.1506 14.4761 18.9765C14.9144 19.1548 15.3481 19.2441 15.765 19.2441C16.1647 19.2441 16.549 19.1621 16.9071 18.9979C17.6586 18.6535 18.2198 17.9842 18.5308 17.061C18.6798 16.6169 18.6764 16.1799 18.522 15.7647C18.3562 15.3137 17.8246 14.758 16.9425 14.1131C16.3394 13.6722 15.4968 13.1399 14.9043 13.1077C13.9204 13.0582 13.4276 13.7784 13.217 14.0864C12.9492 14.4781 13.0495 15.0126 13.4411 15.2806C13.8329 15.5485 14.3673 15.4482 14.6353 15.0565C14.7287 14.9199 14.7821 14.8578 14.8127 14.8306C15.295 14.9852 16.6701 15.9955 16.9177 16.3826C16.9237 16.4074 16.9251 16.4451 16.9022 16.5137C16.7938 16.8355 16.5825 17.2567 16.1913 17.436C15.8249 17.6037 15.4085 17.5009 15.1242 17.3853C13.3089 16.6452 11.7241 15.6137 10.421 14.3265C9.12651 13.0162 8.095 11.4314 7.35536 9.61684C7.23944 9.33185 7.13646 8.91523 7.30427 8.54914C7.48354 8.15795 7.90485 7.9465 8.22559 7.83836C8.29409 7.81545 8.33177 7.81671 8.35789 7.82301C8.74518 8.07101 9.75493 9.44536 9.90957 9.92773C9.88231 9.95785 9.82033 10.0113 9.68368 10.1047Z" fill="#3DB804"/>
</g>
<defs>
<clipPath id="clip0">
<rect width="26" height="26" fill="white"/>
</clipPath>
</defs>
</svg>
