<svg width="26" height="26" viewBox="0 0 26 26" fill="none" xmlns="http://www.w3.org/2000/svg">
<g clip-path="url(#clip0)">
<path d="M22.8603 2.90869C20.8051 0.89378 17.4824 -0.0825175 12.9828 0.00545576C8.44578 0.0946891 5.41299 0.891031 3.43852 2.51166C1.52945 4.07846 0.640327 6.37115 0.640327 9.72685V13.1516C0.640327 17.1132 2.76314 21.4684 6.82034 22.1274C7.28873 22.204 7.72997 21.8856 7.80603 21.4171C7.88209 20.9488 7.5641 20.5075 7.09571 20.4314C4.01882 19.9316 2.35856 16.3077 2.35856 13.1516V9.72685C2.35856 4.91512 4.1415 1.8978 13.0165 1.72323C17.04 1.6435 19.944 2.45576 21.6572 4.1355C22.9923 5.44468 23.6413 7.27356 23.6413 9.72685V13.1516C23.6413 18.3377 21.3136 20.6251 15.3433 21.2987H11.1098C10.882 21.2987 10.6634 21.3891 10.5024 21.5503L7.51943 24.5333C7.18391 24.8688 7.18391 25.4128 7.51943 25.7483C7.68712 25.916 7.90706 26 8.12688 26C8.34669 26 8.56663 25.9161 8.73433 25.7483L11.4657 23.0169H15.3913C15.4229 23.0169 15.4547 23.0152 15.4862 23.0116C18.9029 22.6321 21.2427 21.7429 22.8492 20.213C24.5385 18.6042 25.3597 16.2945 25.3597 13.1515V9.72685C25.3597 6.82888 24.5188 4.53493 22.8603 2.90869Z" fill="white"/>
<path d="M13.5362 5.61142C13.5363 5.61142 13.5363 5.61142 13.5365 5.61142C14.9209 5.61142 16.2224 6.1506 17.2013 7.12954C18.1803 8.10858 18.7195 9.41031 18.7194 10.7949C18.7194 11.2693 19.1039 11.654 19.5784 11.654C19.5785 11.654 19.5785 11.654 19.5785 11.654C20.053 11.654 20.4376 11.2694 20.4376 10.795C20.4378 8.95143 19.7199 7.2182 18.4163 5.91463C17.1129 4.61107 15.38 3.89331 13.5365 3.89331C13.5364 3.89331 13.5361 3.89331 13.536 3.89331C13.0615 3.89331 12.677 4.27796 12.677 4.75242C12.6771 5.22677 13.0617 5.61142 13.5362 5.61142Z" fill="white"/>
<path d="M13.536 8.63253C14.7282 8.63276 15.6983 9.60276 15.6984 10.7949C15.6985 11.2693 16.0831 11.654 16.5576 11.6539C17.0322 11.6539 17.4168 11.2691 17.4166 10.7946C17.4163 8.65533 15.6756 6.91465 13.5362 6.91431H13.5361C13.0616 6.91431 12.6771 7.29885 12.677 7.77331C12.677 8.24777 13.0615 8.63253 13.536 8.63253Z" fill="white"/>
<path d="M9.6837 10.1047C9.29206 10.3725 9.1916 10.9071 9.4593 11.2988C9.727 11.6904 10.2617 11.7907 10.6534 11.523C10.9614 11.3125 11.6828 10.8193 11.6322 9.83323C11.6001 9.24307 11.0678 8.40045 10.6269 7.79747C9.98199 6.91522 9.4262 6.38383 8.97842 6.21911C8.56032 6.06344 8.12309 6.06011 7.67795 6.20948C6.75595 6.52014 6.08653 7.08154 5.7422 7.83298C5.40691 8.56449 5.41436 9.40516 5.76385 10.2646C6.58928 12.2896 7.74485 14.0625 9.20615 15.5415C10.6775 16.995 12.4503 18.1506 14.4761 18.9765C14.9145 19.1548 15.3481 19.2441 15.765 19.2441C16.1647 19.2441 16.5491 19.1621 16.9071 18.9979C17.6586 18.6535 18.2199 17.9842 18.5309 17.061C18.6798 16.6169 18.6765 16.1799 18.522 15.7647C18.3562 15.3137 17.8247 14.758 16.9425 14.1131C16.3394 13.6722 15.4968 13.1399 14.9044 13.1077C13.9204 13.0582 13.4276 13.7784 13.2171 14.0864C12.9493 14.4781 13.0495 15.0126 13.4411 15.2806C13.8329 15.5485 14.3674 15.4482 14.6353 15.0565C14.7288 14.9199 14.7821 14.8578 14.8127 14.8306C15.295 14.9852 16.6701 15.9955 16.9177 16.3826C16.9237 16.4074 16.9251 16.4451 16.9022 16.5137C16.7938 16.8355 16.5825 17.2567 16.1913 17.436C15.8249 17.6037 15.4085 17.5009 15.1242 17.3853C13.3089 16.6452 11.7242 15.6137 10.4211 14.3265C9.12654 13.0162 8.09503 11.4314 7.35539 9.61684C7.23946 9.33185 7.13648 8.91523 7.3043 8.54914C7.48357 8.15795 7.90488 7.9465 8.22561 7.83836C8.29411 7.81545 8.3318 7.81671 8.35791 7.82301C8.7452 8.07101 9.75495 9.44536 9.90959 9.92773C9.88233 9.95785 9.82036 10.0113 9.6837 10.1047Z" fill="white"/>
</g>
<defs>
<clipPath id="clip0">
<rect width="26" height="26" fill="white"/>
</clipPath>
</defs>
</svg>
